<mxfile host="app.diagrams.net" modified="2024-01-02T16:04:02.532Z" agent="Mozilla/5.0 (Windows NT 10.0; Win64; x64) AppleWebKit/537.36 (KHTML, like Gecko) Chrome/120.0.0.0 Safari/537.36 Edg/120.0.0.0" version="22.1.16" etag="ude7V0m6QXd-HMLFQ-2N" type="github">
  <diagram name="Page-1" id="xG1w_BEsiNUN7U1nyh4B">
    <mxGraphModel>
      <root>
        <mxCell id="0" />
        <mxCell id="1" parent="0" />
      </root>
    </mxGraphModel>
  </diagram>
</mxfile>
